<svg width="21" height="19" viewBox="0 0 21 19" fill="none" xmlns="http://www.w3.org/2000/svg">
<path d="M10.5003 18.1023L1.7389 9.34091C1.04004 8.64205 0.57413 7.82955 0.341176 6.90341C0.113903 5.97727 0.116744 5.05682 0.349698 4.14205C0.582653 3.22159 1.04572 2.42045 1.7389 1.73864C2.44913 1.03977 3.25879 0.576704 4.16788 0.349432C5.08265 0.116477 5.99458 0.116477 6.90368 0.349432C7.81845 0.582386 8.63095 1.04545 9.34118 1.73864L10.5003 2.86364L11.6594 1.73864C12.3753 1.04545 13.1878 0.582386 14.0969 0.349432C15.0059 0.116477 15.915 0.116477 16.8241 0.349432C17.7389 0.576704 18.5514 1.03977 19.2616 1.73864C19.9548 2.42045 20.4179 3.22159 20.6508 4.14205C20.8838 5.05682 20.8838 5.97727 20.6508 6.90341C20.4236 7.82955 19.9605 8.64205 19.2616 9.34091L10.5003 18.1023Z" fill="black"/>
</svg>
